<svg width="91" height="91" viewBox="0 0 91 91" fill="none" xmlns="http://www.w3.org/2000/svg">
<g clip-path="url(#clip0_4225_72994)">
<path fill-rule="evenodd" clip-rule="evenodd" d="M44.2477 10.8896C43.2938 10.6695 42.3419 11.2631 42.1212 12.217C41.9004 13.171 42.4954 14.1235 43.4493 14.3443C47.8593 15.3635 51.8903 17.6025 55.1055 20.8177C64.558 30.2703 64.558 45.6519 55.1055 55.1045C45.6529 64.5577 30.2713 64.5577 20.8187 55.1045C11.3655 45.6519 11.3655 30.2703 20.8187 20.8177C23.5327 18.1038 26.7444 16.1244 30.365 14.933C31.2946 14.6276 31.8008 13.6257 31.4953 12.6954C31.1891 11.7651 30.1866 11.2589 29.2569 11.5651C25.1038 12.9308 21.4214 15.2003 18.3117 18.3107C7.47617 29.1462 7.47617 46.7766 18.3117 57.6122C23.7291 63.0296 30.8454 65.7387 37.9625 65.7387C45.0788 65.738 52.1951 63.0296 57.6132 57.6122C68.448 46.7766 68.448 29.1462 57.6132 18.3107C53.9273 14.6255 49.3062 12.0587 44.2477 10.8896Z" fill="#4C4C4C"/>
<path fill-rule="evenodd" clip-rule="evenodd" d="M88.5852 76.9069L70.0065 58.3281C79.5333 43.3887 77.447 23.7615 64.805 11.1188C57.6352 3.94903 48.1021 0 37.9622 0C27.8217 0 18.2886 3.94903 11.1188 11.1188C3.94834 18.2886 0 27.8217 0 37.9622C0 48.1021 3.94834 57.6352 11.1188 64.805C18.2886 71.9747 27.821 75.9231 37.9608 75.9231C45.2382 75.9231 52.2483 73.8819 58.3281 70.0065L76.9069 88.5852C78.4613 90.1404 80.5351 90.9965 82.7464 90.9965C84.957 90.9965 87.0308 90.1404 88.5859 88.5852C91.8046 85.3652 91.8046 80.1269 88.5852 76.9069ZM86.0782 86.0782C85.193 86.9627 84.01 87.4501 82.7464 87.4501C81.4821 87.4501 80.2991 86.9627 79.4139 86.0782L59.809 66.4733C59.466 66.1296 59.0119 65.954 58.5551 65.954C58.2038 65.954 57.8511 66.0574 57.5449 66.2699C51.7845 70.2654 45.0119 72.3774 37.9608 72.3774C28.768 72.3774 20.1256 68.7977 13.6258 62.2979C0.206894 48.879 0.206894 27.0448 13.6258 13.6258C20.1263 7.12534 28.7686 3.54566 37.9622 3.54566C47.1551 3.54566 55.7974 7.12534 62.2979 13.6258C74.0784 25.407 75.7495 43.8774 66.2699 57.5449C65.7811 58.2496 65.8665 59.2022 66.4733 59.809L86.0782 79.4139C87.9153 81.2509 87.9153 84.2405 86.0782 86.0782Z" fill="#4C4C4C"/>
<path fill-rule="evenodd" clip-rule="evenodd" d="M48.6646 27.2594C47.9724 26.5672 46.8504 26.5672 46.1575 27.2594L37.9623 35.4546L29.7664 27.2594C29.0742 26.5672 27.9516 26.5672 27.2594 27.2594C26.5672 27.9516 26.5672 29.0742 27.2594 29.7664L35.4546 37.9623L27.2594 46.1575C26.5672 46.8497 26.5672 47.9724 27.2594 48.6646C27.6051 49.011 28.0592 49.1839 28.5125 49.1839C28.9666 49.1839 29.42 49.011 29.7664 48.6646L37.9616 40.4693L46.1568 48.6646C46.5033 49.011 46.9573 49.1839 47.4107 49.1839C47.8647 49.1839 48.3181 49.011 48.6646 48.6646C49.3567 47.9724 49.3567 46.8497 48.6646 46.1575L40.4686 37.9623L48.6646 29.7664C49.3567 29.0742 49.3567 27.9516 48.6646 27.2594Z" fill="#4C4C4C"/>
<path fill-rule="evenodd" clip-rule="evenodd" d="M36.7868 13.7429C37.763 13.7429 38.5593 12.9466 38.5593 11.9697C38.5593 10.9936 37.763 10.1973 36.7868 10.1973C35.81 10.1973 35.0137 10.9936 35.0137 11.9697C35.0137 12.9466 35.81 13.7429 36.7868 13.7429Z" fill="#4C4C4C"/>
</g>
<defs>
<clipPath id="clip0_4225_72994">
<rect width="91" height="91" fill="white"/>
</clipPath>
</defs>
</svg>
