<svg width="42" height="42" viewBox="0 0 42 42" fill="none" xmlns="http://www.w3.org/2000/svg">
<circle cx="21" cy="21" r="20.5" fill="white" stroke="#E4E4E4"/>
<path d="M21.0149 14.1825C18.5324 14.1825 16.5149 16.2 16.5149 18.6825V20.85C16.5149 21.3075 16.3199 22.005 16.0874 22.395L15.2249 23.8275C14.6924 24.7125 15.0599 25.695 16.0349 26.025C19.2674 27.105 22.7549 27.105 25.9874 26.025C26.8949 25.725 27.2924 24.6525 26.7974 23.8275L25.9349 22.395C25.7099 22.005 25.5149 21.3075 25.5149 20.85V18.6825C25.5149 16.2075 23.4899 14.1825 21.0149 14.1825Z" stroke="#838383" stroke-miterlimit="10" stroke-linecap="round"/>
<path d="M22.4024 14.4C22.1699 14.3325 21.9299 14.28 21.6824 14.25C20.9624 14.16 20.2724 14.2125 19.6274 14.4C19.8449 13.845 20.3849 13.455 21.0149 13.455C21.6449 13.455 22.1849 13.845 22.4024 14.4Z" stroke="#838383" stroke-miterlimit="10" stroke-linecap="round" stroke-linejoin="round"/>
<path d="M23.2651 26.295C23.2651 27.5325 22.2526 28.545 21.0151 28.545C20.4001 28.545 19.8301 28.29 19.4251 27.885C19.0201 27.48 18.7651 26.91 18.7651 26.295" stroke="#838383" stroke-miterlimit="10"/>
</svg>
