<svg width="18" height="18" viewBox="0 0 18 18" fill="none" xmlns="http://www.w3.org/2000/svg">
<path d="M16.2597 12.7202L13.9122 7.23772C13.1172 5.37772 11.6547 5.30272 10.6722 7.07272L9.2547 9.63022C8.5347 10.9277 7.1922 11.0402 6.2622 9.87772L6.0972 9.66772C5.1297 8.45272 3.7647 8.60272 3.0672 9.99022L1.7772 12.5777C0.8697 14.3777 2.1822 16.5002 4.1922 16.5002H13.7622C15.7122 16.5002 17.0247 14.5127 16.2597 12.7202Z" stroke="white" stroke-width="1.5" stroke-linecap="round" stroke-linejoin="round"/>
<path d="M5.22754 6C6.47018 6 7.47754 4.99264 7.47754 3.75C7.47754 2.50736 6.47018 1.5 5.22754 1.5C3.9849 1.5 2.97754 2.50736 2.97754 3.75C2.97754 4.99264 3.9849 6 5.22754 6Z" stroke="white" stroke-width="1.5" stroke-linecap="round" stroke-linejoin="round"/>
</svg>
