<svg width="35" height="35" viewBox="0 0 35 35" fill="none" xmlns="http://www.w3.org/2000/svg">
<rect x="0.5" y="0.5" width="34" height="34" rx="17" stroke="black"/>
<path d="M17.5003 18.3327C17.9606 18.3327 18.3337 17.9596 18.3337 17.4993C18.3337 17.0391 17.9606 16.666 17.5003 16.666C17.0401 16.666 16.667 17.0391 16.667 17.4993C16.667 17.9596 17.0401 18.3327 17.5003 18.3327Z" fill="black" stroke="black" stroke-width="1.5" stroke-linecap="round" stroke-linejoin="round"/>
<path d="M23.3333 18.3327C23.7936 18.3327 24.1667 17.9596 24.1667 17.4993C24.1667 17.0391 23.7936 16.666 23.3333 16.666C22.8731 16.666 22.5 17.0391 22.5 17.4993C22.5 17.9596 22.8731 18.3327 23.3333 18.3327Z" fill="black" stroke="black" stroke-width="1.5" stroke-linecap="round" stroke-linejoin="round"/>
<path d="M11.6663 18.3327C12.1266 18.3327 12.4997 17.9596 12.4997 17.4993C12.4997 17.0391 12.1266 16.666 11.6663 16.666C11.2061 16.666 10.833 17.0391 10.833 17.4993C10.833 17.9596 11.2061 18.3327 11.6663 18.3327Z" fill="black" stroke="black" stroke-width="1.5" stroke-linecap="round" stroke-linejoin="round"/>
</svg>
